<?xml version="1.0" encoding="UTF-8"?>
<svg version="1.1" xmlns="http://www.w3.org/2000/svg" width="447" height="447">
<path d="M0 0 C147.51 0 295.02 0 447 0 C447 147.51 447 295.02 447 447 C299.49 447 151.98 447 0 447 C0 299.49 0 151.98 0 0 Z " fill="#FEFEFE" transform="translate(0,0)"/>
<path d="M0 0 C0.66902344 0.20496094 1.33804688 0.40992188 2.02734375 0.62109375 C13.39051903 4.36234369 22.01410628 11.29823931 30 20 C30.66 20.66 31.32 21.32 32 22 C33.01654701 23.70745919 33.99050825 25.44050505 34.9375 27.1875 C35.69353516 28.57001953 35.69353516 28.57001953 36.46484375 29.98046875 C38.1376531 33.27075278 39.57916035 36.59422616 41 40 C41.98097656 39.7834375 42.96195312 39.566875 43.97265625 39.34375 C67.29157839 34.42575754 87.59473315 37.76072454 107.61328125 50.6875 C109.86799736 52.35350693 111.93096362 54.10841747 114 56 C114.89203125 56.80050781 115.7840625 57.60101563 116.703125 58.42578125 C125.91491961 67.12161469 132.08235135 76.70154885 136.375 88.5625 C136.73331909 89.5517749 136.73331909 89.5517749 137.09887695 90.56103516 C141.36548634 103.24504873 141.27089613 115.99243504 141.1953125 129.203125 C141.1915751 131.13653415 141.18873157 133.0699452 141.18673706 135.00335693 C141.17915782 140.05358249 141.15955938 145.10369015 141.1373291 150.15386963 C141.11674664 155.32261562 141.10770901 160.49138095 141.09765625 165.66015625 C141.07630728 175.77348886 141.04224158 185.88673456 141 196 C102.34907701 196.06870889 63.69816325 196.1215505 25.04719152 196.15319599 C20.48116794 196.15694798 15.91514449 196.16083096 11.34912109 196.16479492 C9.98563642 196.16597532 9.98563642 196.16597532 8.59460661 196.16717956 C-6.11188629 196.18022344 -20.8183439 196.20387167 -35.52481589 196.23145839 C-50.6218373 196.25954093 -65.71884027 196.27618228 -80.81588674 196.28226548 C-90.12700526 196.28637602 -99.43802405 196.29934564 -108.74911186 196.3237494 C-115.13934218 196.33964177 -121.52952116 196.34439245 -127.91976979 196.34050413 C-131.60325945 196.33858802 -135.28657515 196.34146672 -138.97003365 196.35761642 C-142.97279028 196.37503692 -146.97518013 196.36893424 -150.97796631 196.36076355 C-152.12975144 196.36950207 -153.28153657 196.3782406 -154.46822429 196.38724393 C-168.97760151 196.30746452 -181.45452864 192.43118135 -192.25 182.5 C-199.99239023 174.36309307 -206.28719309 162.50463289 -206.17578125 151.140625 C-206.15902344 150.47546875 -206.14226562 149.8103125 -206.125 149.125 C-206.11597656 148.43664062 -206.10695312 147.74828125 -206.09765625 147.0390625 C-206.07432513 145.35922162 -206.03846326 143.67956254 -206 142 C-206.54398438 142.15597656 -207.08796875 142.31195313 -207.6484375 142.47265625 C-214.63604876 144.03964549 -221.14833878 143.98631746 -227.4375 140.375 C-234.39142127 135.61295472 -239.81319655 129.09631516 -241.45703125 120.65234375 C-242.03621068 112.15322236 -237.91809315 105.49748611 -232.60595703 99.13061523 C-230.35099079 96.7152322 -228.05959623 94.35579506 -225.69726562 92.04541016 C-224.24752038 90.6225664 -222.82659147 89.17478911 -221.40625 87.72265625 C-214.62141147 80.98467434 -207.85541113 75.15046444 -198 74.375 C-189.93232002 74.84360936 -182.9807118 79.07111724 -177.5390625 84.88671875 C-174.62358195 88.88995474 -172.80078777 93.41089568 -171 98 C-170.319375 97.83757812 -169.63875 97.67515625 -168.9375 97.5078125 C-165.57723003 96.92691477 -162.40949785 96.86765194 -159 96.875 C-157.80375 96.87242187 -156.6075 96.86984375 -155.375 96.8671875 C-152.44672307 96.98242062 -149.84213024 97.32176437 -147 98 C-147.15597656 96.73285156 -147.31195313 95.46570313 -147.47265625 94.16015625 C-147.66979612 92.46099836 -147.86638102 90.76177602 -148.0625 89.0625 C-148.16626953 88.23169922 -148.27003906 87.40089844 -148.37695312 86.54492188 C-149.67376755 75.05246301 -147.97448786 64.73687784 -140.94921875 55.22265625 C-136.47446709 50.08326099 -131.66183304 45.77874001 -126 42 C-125.195625 41.4225 -124.39125 40.845 -123.5625 40.25 C-112.83786583 35.01847114 -100.92446635 36.14621325 -89.9375 39.84375 C-86.34613342 41.25737301 -83.23061924 42.89634096 -80 45 C-79.70867187 44.24976563 -79.41734375 43.49953125 -79.1171875 42.7265625 C-72.045773 25.07026341 -61.0855001 9.97343209 -43.26171875 1.875 C-28.6699124 -3.77018933 -14.93389017 -5.28959866 0 0 Z " fill="#E1E7EC" transform="translate(306,251)"/>
<path d="M0 0 C0.67724121 0.21962402 1.35448242 0.43924805 2.05224609 0.66552734 C33.89627179 11.20560894 60.63016921 32.23685768 76.234375 62.1796875 C85.08520274 79.93649469 89.43028735 97.56272194 89.375 117.4375 C89.37478851 118.14009949 89.37457703 118.84269897 89.37435913 119.56658936 C89.3230391 136.69969776 86.4167782 152.11584414 80 168 C76.77298796 166.60186349 74.89504935 164.98288368 72.5625 162.375 C65.3029209 154.93934902 56.08595567 149.51675817 46 147 C45.34386719 146.79761719 44.68773437 146.59523437 44.01171875 146.38671875 C28.4958917 142.0913768 13.34826568 145.66688896 -0.75 152.625 C-16.55158432 161.9633799 -25.18199525 175.90961105 -31 193 C-31.845625 192.59007812 -32.69125 192.18015625 -33.5625 191.7578125 C-45.71597941 185.98490978 -57.23669798 182.62846071 -70.71875 186.12109375 C-82.75222312 190.75727774 -91.37580174 199.44381517 -96.74609375 210.9453125 C-98.49866154 215.21480785 -99.87189423 219.52715959 -101 224 C-126.07661782 211.183062 -142.50421022 185.64153631 -152 160 C-152.30808594 159.22269531 -152.61617188 158.44539062 -152.93359375 157.64453125 C-157.57019102 145.2242163 -158.2765838 132.37695263 -158.3125 119.25 C-158.31789795 118.04311523 -158.3232959 116.83623047 -158.32885742 115.59277344 C-158.24376391 104.75112006 -157.00086906 94.15330357 -153.875 83.75 C-153.66399658 83.04528564 -153.45299316 82.34057129 -153.2355957 81.61450195 C-142.68322688 48.03066759 -118.54967864 23.22042461 -88 7 C-87.1234375 6.52820313 -86.246875 6.05640625 -85.34375 5.5703125 C-60.93370236 -6.55937167 -25.84271386 -8.64473083 0 0 Z " fill="#FEAC33" transform="translate(258,104)"/>
<path d="M0 0 C5.05707252 3.11826612 9.12845889 7.03610077 13.25097656 11.28881836 C14.66296133 12.74072568 16.10230208 14.16067324 17.54711914 15.57983398 C24.25004698 22.36239129 30.07382517 29.16027295 30.84594727 38.98608398 C30.36746024 47.22382002 26.03328192 54.12993037 20.01782227 59.57983398 C14.21963467 64.11754601 8.97365305 64.38026304 1.79516602 64.67749023 C-8.35606288 62.71380989 -15.58950891 54.82382597 -22.59155273 47.73608398 C-23.50614258 46.8453418 -24.42073242 45.95459961 -25.36303711 45.03686523 C-32.22503527 38.15989544 -37.70526069 31.45983643 -38.40405273 21.48608398 C-37.9783127 13.55387486 -34.68347216 7.41197516 -28.90405273 2.04858398 C-18.91923505 -5.86461732 -10.90122153 -5.6352289 0 0 Z " fill="#FFAC34" transform="translate(90.779052734375,69.013916015625)"/>
<path d="M0 0 C7.70994643 3.85497321 13.40877403 9.12681025 16.375 17.375 C18.12305922 26.19475332 14.95436198 32.95825639 10.375 40.375 C7.21289347 44.30170463 3.7420884 47.80603379 0.125 51.3125 C-0.76574219 52.21806641 -1.65648437 53.12363281 -2.57421875 54.05664062 C-8.87380267 60.27850834 -15.07611691 65.32397626 -23.9453125 67.00390625 C-32.60082123 66.79897081 -38.00349034 65.01157447 -44.375 59.125 C-49.9952782 53.0545851 -52.03653958 47.73649614 -52.25390625 39.4765625 C-50.25182119 29.60292561 -43.93761935 22.89100908 -36.97045898 16.06860352 C-35.43948689 14.56445208 -33.93712306 13.03538909 -32.43554688 11.50195312 C-23.19865894 2.23069256 -13.33209314 -5.34637238 0 0 Z " fill="#FFAC34" transform="translate(377.625,66.625)"/>
<path d="M0 0 C2.62760597 0.02680733 5.25094199 0.00016643 7.87841797 -0.03173828 C17.88859515 -0.05274812 26.27379021 0.32251795 34.04589844 7.39257812 C38.99596723 12.49195647 40.19381137 17.99849186 40.50732422 24.96435547 C40.35405018 31.52809067 38.85471629 37.38498498 34.58935547 42.50341797 C28.1648704 48.47216154 20.83063078 50.11811671 12.31982422 50.08544922 C11.50666748 50.09069107 10.69351074 50.09593292 9.85571289 50.10133362 C8.14812352 50.10771516 6.44048996 50.10646739 4.73291016 50.09790039 C2.13868173 50.08937636 -0.45335082 50.11822612 -3.04736328 50.14990234 C-4.71663346 50.1515145 -6.38590749 50.15093655 -8.05517578 50.14794922 C-8.81999268 50.1591832 -9.58480957 50.17041718 -10.37280273 50.18199158 C-17.35140555 50.092845 -22.42867696 47.76565445 -27.68017578 43.21435547 C-34.46238001 35.26948765 -34.51871733 27.83600534 -33.86767578 17.65185547 C-33.20989673 14.80792841 -32.39495659 13.2155054 -30.86767578 10.65185547 C-30.35205078 9.78560547 -29.83642578 8.91935547 -29.30517578 8.02685547 C-20.82841493 -0.23255254 -11.15522666 -0.13545484 0 0 Z " fill="#FFAC33" transform="translate(406.86767578125,198.34814453125)"/>
<path d="M0 0 C0.78763229 -0.00524185 1.57526459 -0.0104837 2.38676453 -0.0158844 C4.04485909 -0.02227427 5.70299918 -0.02100715 7.36108398 -0.01245117 C9.86981914 -0.00396343 12.37625602 -0.03270607 14.88476562 -0.06445312 C24.74706347 -0.10977658 33.35956312 0.06660348 41.265625 6.6875 C42.19181641 7.83025391 42.19181641 7.83025391 43.13671875 8.99609375 C43.77738281 9.76050781 44.41804688 10.52492187 45.078125 11.3125 C49.3238984 17.33196464 48.27381609 26.92119091 47.18359375 33.953125 C45.47137279 39.51784313 41.46950496 43.44034599 36.57421875 46.43359375 C28.93784261 50.3551899 20.42942962 49.9582908 12.0637207 49.93457031 C9.64478773 49.933597 7.22902456 49.97533123 4.81054688 50.01953125 C-4.68353161 50.09265237 -12.48848331 49.54753058 -20.01904297 43.0612793 C-24.83426852 37.90235893 -26.57933392 31.88984548 -26.80078125 24.99609375 C-26.57699207 18.77303308 -25.8697807 13.26290842 -21.69140625 8.42578125 C-15.08101341 2.30220029 -8.86292842 -0.03507319 0 0 Z " fill="#FFAC33" transform="translate(26.42578125,198.56640625)"/>
<path d="M0 0 C5.78837964 5.05734205 7.93174541 10.50351519 9 18 C9.25458433 22.80938795 9.31234909 27.61419469 9.35009766 32.4296875 C9.36662401 33.96955514 9.39387078 35.50934711 9.43212891 37.04882812 C9.68185572 47.18556534 9.49672184 56.07490361 2.21435547 63.92480469 C-3.99089201 69.84207586 -10.58781858 70.34368703 -18.875 70.18359375 C-24.66984181 69.84314679 -29.26390029 68.6840656 -33.59277344 64.62304688 C-40.94538319 56.14279884 -40.78110803 46.77676969 -40.65185547 36.13232422 C-40.62504814 33.50471825 -40.65168904 30.88138223 -40.68359375 28.25390625 C-40.70460358 18.24372907 -40.32933752 9.858534 -33.25927734 2.08642578 C-24.40081757 -6.51265871 -10.17584475 -6.09481419 0 0 Z " fill="#FFAC33" transform="translate(239,4)"/>
<path d="M0 0 C7.24576926 4.04441523 12.30015012 8.9570945 14.8125 16.9375 C14.85331389 18.60366686 14.86083007 20.27153422 14.8125 21.9375 C14.06226563 22.26621094 13.31203125 22.59492188 12.5390625 22.93359375 C0.80917926 28.3848871 -8.70821696 35.95065025 -14.1875 47.9375 C-15.25985891 51.45476919 -16.09932608 55.01642561 -16.77099609 58.63110352 C-17.75555877 63.58600902 -17.75555877 63.58600902 -19.94921875 65.37109375 C-26.89304015 67.12825623 -33.35450731 66.90369671 -39.625 63.3125 C-46.57892127 58.55045472 -52.00069655 52.03381516 -53.64453125 43.58984375 C-54.22371068 35.09072236 -50.10559315 28.43498611 -44.79345703 22.06811523 C-42.53849079 19.6527322 -40.24709623 17.29329506 -37.88476562 14.98291016 C-36.43502038 13.5600664 -35.01409147 12.11228911 -33.59375 10.66015625 C-23.90179737 1.03513699 -13.60969129 -6.19745397 0 0 Z " fill="#FEAC34" transform="translate(118.1875,328.0625)"/>
<path d="M0 0 C0.33 0 0.66 0 1 0 C1 23.43 1 46.86 1 71 C-22.1 71 -45.2 71 -69 71 C-69 70.67 -69 70.34 -69 70 C-68.06800781 69.84144531 -67.13601563 69.68289063 -66.17578125 69.51953125 C-45.30827183 65.70050273 -27.48167248 56.55787844 -14.8203125 38.97265625 C-6.91204043 26.6626101 -2.290287 14.34442909 0 0 Z " fill="#FEFEFE" transform="translate(446,376)"/>
<path d="M0 0 C0.66 0.33 1.32 0.66 2 1 C-0.97 3.97 -3.94 6.94 -7 10 C-7.66 9.67 -8.32 9.34 -9 9 C-8.06725891 7.87105124 -7.12859878 6.74699124 -6.1875 5.625 C-5.66542969 4.99851562 -5.14335937 4.37203125 -4.60546875 3.7265625 C-3 2 -3 2 0 0 Z " fill="#FFB345" transform="translate(211,2)"/>
</svg>
